<svg version="1.1" viewBox="0.0 0.0 960.0 720.0" fill="none" stroke="none" stroke-linecap="square" stroke-miterlimit="10" xmlns:xlink="http://www.w3.org/1999/xlink" xmlns="http://www.w3.org/2000/svg"><clipPath id="p.0"><path d="m0 0l960.0 0l0 720.0l-960.0 0l0 -720.0z" clip-rule="nonzero"/></clipPath><g clip-path="url(#p.0)"><path fill="#000000" fill-opacity="0.0" d="m0 0l960.0 0l0 720.0l-960.0 0z" fill-rule="evenodd"/><path fill="#980000" d="m277.3693 224.91473l0 0c0 -37.30388 30.240753 -67.54466 67.54465 -67.54466l270.17053 0l0 0c17.91394 0 35.094177 7.1163025 47.76129 19.783386c12.667053 12.6670685 19.783386 29.84732 19.783386 47.761276l0 270.17053c0 37.303894 -30.240784 67.54468 -67.54468 67.54468l-270.17053 0c-37.303894 0 -67.54465 -30.240784 -67.54465 -67.54468z" fill-rule="evenodd"/><path stroke="#ffffff" stroke-width="8.0" stroke-linejoin="round" stroke-linecap="butt" d="m277.3693 224.91473l0 0c0 -37.30388 30.240753 -67.54466 67.54465 -67.54466l270.17053 0l0 0c17.91394 0 35.094177 7.1163025 47.76129 19.783386c12.667053 12.6670685 19.783386 29.84732 19.783386 47.761276l0 270.17053c0 37.303894 -30.240784 67.54468 -67.54468 67.54468l-270.17053 0c-37.303894 0 -67.54465 -30.240784 -67.54465 -67.54468z" fill-rule="evenodd"/></g></svg>