<svg version="1.1" viewBox="0.0 0.0 960.0 720.0" fill="none" stroke="none" stroke-linecap="square" stroke-miterlimit="10" xmlns:xlink="http://www.w3.org/1999/xlink" xmlns="http://www.w3.org/2000/svg"><clipPath id="p.0"><path d="m0 0l960.0 0l0 720.0l-960.0 0l0 -720.0z" clip-rule="nonzero"/></clipPath><g clip-path="url(#p.0)"><path fill="#000000" fill-opacity="0.0" d="m0 0l960.0 0l0 720.0l-960.0 0z" fill-rule="evenodd"/><path fill="#000000" d="m590.5535 194.18935l55.25818 55.25818l0 221.1057l-55.25818 55.25818l-221.10568 0l-55.25818 -55.25818l0 -221.1057l55.25818 -55.25818z" fill-rule="evenodd"/><path stroke="#ffffff" stroke-width="4.0" stroke-linejoin="round" stroke-linecap="butt" d="m590.5535 194.18935l55.25818 55.25818l0 221.1057l-55.25818 55.25818l-221.10568 0l-55.25818 -55.25818l0 -221.1057l55.25818 -55.25818z" fill-rule="evenodd"/><path fill="#000000" d="m575.25635 71.35763l0 288.6431l-70.61197 0l0 -288.6431z" fill-rule="evenodd"/><path stroke="#ffffff" stroke-width="4.0" stroke-linejoin="round" stroke-linecap="butt" d="m575.25635 71.35763l0 288.6431l-70.61197 0l0 -288.6431z" fill-rule="evenodd"/><path fill="#000000" d="m575.25635 71.35763l0 49.118637l-70.61197 0l0 -49.118637z" fill-rule="evenodd"/><path stroke="#ffffff" stroke-width="4.0" stroke-linejoin="round" stroke-linecap="butt" d="m575.25635 71.35763l0 49.118637l-70.61197 0l0 -49.118637z" fill-rule="evenodd"/><path fill="#000000" d="m455.47495 71.35763l0 288.6431l-70.612 0l0 -288.6431z" fill-rule="evenodd"/><path stroke="#ffffff" stroke-width="4.0" stroke-linejoin="round" stroke-linecap="butt" d="m455.47495 71.35763l0 288.6431l-70.612 0l0 -288.6431z" fill-rule="evenodd"/><path fill="#000000" d="m455.47495 71.35763l0 49.118637l-70.612 0l0 -49.118637z" fill-rule="evenodd"/><path stroke="#ffffff" stroke-width="4.0" stroke-linejoin="round" stroke-linecap="butt" d="m455.47495 71.35763l0 49.118637l-70.612 0l0 -49.118637z" fill-rule="evenodd"/><path fill="#000000" d="m595.084 41.463345l-20.968506 83.87401l-68.614136 0l-20.968506 -83.87401z" fill-rule="evenodd"/><path stroke="#ffffff" stroke-width="4.0" stroke-linejoin="round" stroke-linecap="butt" d="m595.084 41.463345l-20.968506 83.87401l-68.614136 0l-20.968506 -83.87401z" fill-rule="evenodd"/><path fill="#000000" d="m475.4665 41.463345l-21.189087 83.87401l-68.173004 0l-21.189087 -83.87401z" fill-rule="evenodd"/><path stroke="#ffffff" stroke-width="4.0" stroke-linejoin="round" stroke-linecap="butt" d="m475.4665 41.463345l-21.189087 83.87401l-68.173004 0l-21.189087 -83.87401z" fill-rule="evenodd"/></g></svg>